<svg width="11" height="12" viewBox="0 0 11 12" fill="none" xmlns="http://www.w3.org/2000/svg">
<path d="M3.7125 9L5.5 7.26667L7.2875 9L8.25 8.06667L6.4625 6.33333L8.25 4.6L7.2875 3.66667L5.5 5.4L3.7125 3.66667L2.75 4.6L4.5375 6.33333L2.75 8.06667L3.7125 9ZM2.0625 12C1.68437 12 1.36068 11.8694 1.09141 11.6083C0.822135 11.3472 0.6875 11.0333 0.6875 10.6667V2H0V0.666667H3.4375V0H7.5625V0.666667H11V2H10.3125V10.6667C10.3125 11.0333 10.1779 11.3472 9.90859 11.6083C9.63932 11.8694 9.31563 12 8.9375 12H2.0625ZM8.9375 2H2.0625V10.6667H8.9375V2Z" fill="white"/>
</svg>
