<svg width="18" height="16" viewBox="0 0 18 16" fill="none" xmlns="http://www.w3.org/2000/svg">
<path d="M6.7991 3.40068L9.99826 0.999567C11.1046 0.169183 12.3404 -0.148746 13.7054 0.0457791C15.0705 0.240305 16.1682 0.890758 16.9986 1.99714C17.829 3.10351 18.1469 4.33924 17.9524 5.7043C17.7579 7.06937 17.1074 8.1671 16.001 8.99748L12.8019 11.3986L11.6013 9.79901L14.8005 7.3979C15.467 6.89767 15.8584 6.2392 15.9748 5.42249C16.0912 4.60578 15.8993 3.86418 15.399 3.19769C14.8988 2.5312 14.2403 2.13976 13.4236 2.02338C12.6069 1.90699 11.8653 2.09892 11.1988 2.59915L7.99965 5.00026L6.7991 3.40068ZM11.5996 4.79901L12.8001 6.39859L6.40181 11.2008L5.20125 9.60123L11.5996 4.79901ZM5.19951 4.60123L6.40007 6.20082L3.2009 8.60193C2.53441 9.10216 2.14297 9.76063 2.02659 10.5773C1.91021 11.394 2.10213 12.1356 2.60236 12.8021C3.10259 13.4686 3.76106 13.8601 4.57777 13.9764C5.39448 14.0928 6.13608 13.9009 6.80257 13.4007L10.0017 10.9996L11.2023 12.5991L8.00313 15.0003C6.89675 15.8306 5.66103 16.1486 4.29596 15.954C2.93089 15.7595 1.83316 15.1091 1.00278 14.0027C0.172395 12.8963 -0.145534 11.6606 0.0489916 10.2955C0.243518 8.93046 0.89397 7.83273 2.00035 7.00234L5.19951 4.60123Z" fill="#FFAE00"/>
</svg>
