<svg width="28" height="27" viewBox="0 0 28 27" fill="none" xmlns="http://www.w3.org/2000/svg">
<path d="M18.9331 2.83348C17.8665 1.23348 15.9998 0.166809 13.9998 0.166809C11.9998 0.166809 10.1331 1.23348 9.06647 2.83348C8.53314 2.70014 7.86647 2.56681 7.33314 2.56681C4.7998 2.56681 2.7998 4.56681 2.7998 6.96681C2.7998 9.36681 4.7998 11.3668 7.33314 11.3668C8.26647 11.3668 9.1998 11.1001 9.9998 10.4335C11.0665 11.3668 12.5331 11.9001 13.9998 11.9001C15.4665 11.9001 16.9331 11.3668 17.9998 10.4335C18.7998 10.9668 19.7331 11.3668 20.6665 11.3668C23.1998 11.3668 25.1998 9.36681 25.1998 6.96681C25.1998 4.56681 23.1998 2.56681 20.6665 2.56681C20.1331 2.56681 19.4665 2.70014 18.9331 2.83348ZM7.33314 8.56681C6.26647 8.56681 5.46647 7.90014 5.46647 6.96681C5.46647 6.03348 6.26647 5.23348 7.33314 5.23348C7.5998 5.23348 7.86647 5.23348 7.9998 5.36681C7.9998 5.63348 7.9998 5.90014 7.9998 6.03348C7.9998 6.43348 7.9998 6.70014 8.13314 7.10014C8.13314 7.23348 8.13314 7.23348 8.13314 7.36681C8.13314 7.63348 8.26647 7.90014 8.39981 8.16681V8.30014C8.13314 8.56681 7.73314 8.56681 7.33314 8.56681ZM13.9998 9.23348C12.7998 9.23348 11.8665 8.70014 11.1998 7.76681C10.7998 7.23348 10.6665 6.70014 10.6665 6.03348C10.6665 5.76681 10.6665 5.36681 10.7998 5.10014C11.1998 3.76681 12.5331 2.83348 13.9998 2.83348C15.4665 2.83348 16.7998 3.76681 17.1998 5.10014C17.3331 5.36681 17.3331 5.76681 17.3331 6.03348C17.3331 6.56681 17.1998 7.23348 16.7998 7.76681C16.1331 8.70014 15.1998 9.23348 13.9998 9.23348ZM22.5331 6.96681C22.5331 7.90014 21.7331 8.70014 20.6665 8.70014C20.2665 8.70014 19.8665 8.56681 19.5998 8.43348V8.30014C19.7331 8.03348 19.7331 7.76681 19.8665 7.63348C19.8665 7.50014 19.8665 7.50014 19.9998 7.36681C19.9998 6.96681 20.1331 6.70014 20.1331 6.30014C20.1331 6.03348 20.1331 5.76681 20.1331 5.63348C20.1331 5.23348 20.3998 5.23348 20.6665 5.23348C21.7331 5.23348 22.5331 6.03348 22.5331 6.96681Z" fill="white"/>
<path d="M26.7999 15.9001C26.2666 13.6335 24.2666 11.9001 22.1333 11.9001H19.1999C17.9999 11.9001 16.9333 12.4335 15.9999 13.2335H11.9999C11.0666 12.4335 9.99993 11.9001 8.79993 11.9001H5.86659C3.73326 11.9001 1.73326 13.5001 1.19993 15.9001L0.799927 17.5001C0.53326 18.4335 0.799927 19.5001 1.33326 20.3001C1.86659 20.9668 2.66659 21.3668 3.46659 21.3668V21.5001C3.06659 22.7001 3.33326 24.0335 4.13326 25.1001C4.93326 26.0335 5.99993 26.5668 7.33326 26.5668H20.6666C21.8666 26.5668 23.0666 26.0335 23.7333 24.9668C24.5333 23.9001 24.7999 22.5668 24.3999 21.3668V21.2335C25.1999 21.2335 25.9999 20.8335 26.5333 20.1668C27.0666 19.3668 27.3333 18.4335 27.0666 17.3668L26.7999 15.9001ZM3.46659 18.5668C3.33326 18.4335 3.33326 18.3001 3.33326 18.0335L3.73326 16.4335C3.99993 15.3668 4.93326 14.5668 5.86659 14.5668H7.19993L7.06659 14.7001C6.93326 14.8335 6.79993 14.9668 6.53326 15.1001C6.39993 15.2335 6.26659 15.3668 6.13326 15.5001C5.99993 15.6335 5.86659 15.7668 5.73326 15.9001C5.59993 16.0335 5.46659 16.1668 5.33326 16.4335C5.19993 16.5668 5.06659 16.8335 5.06659 16.9668C4.93326 17.1001 4.79993 17.3668 4.79993 17.5001C4.66659 17.6335 4.66659 17.9001 4.53326 18.0335C4.53326 18.1668 4.39993 18.3001 4.39993 18.4335L3.46659 18.5668ZM21.7333 23.3668C21.5999 23.6335 21.1999 23.9001 20.6666 23.9001H7.33326C6.79993 23.9001 6.53326 23.6335 6.39993 23.3668C5.99993 23.1001 5.99993 22.5668 5.99993 22.1668L6.53326 20.3001L6.66659 19.6335C7.33326 17.3668 9.19993 15.9001 11.3333 15.9001H16.6666C18.7999 15.9001 20.6666 17.3668 21.3333 19.6335L21.4666 20.3001L21.9999 22.1668C21.9999 22.5668 21.9999 23.1001 21.7333 23.3668ZM24.5333 18.5668H23.7333C23.7333 18.4335 23.5999 18.3001 23.5999 18.1668C23.4666 17.9001 23.4666 17.7668 23.3333 17.6335C23.1999 17.5001 23.1999 17.2335 23.0666 17.1001C22.9333 16.9668 22.7999 16.7001 22.6666 16.5668C22.5333 16.4335 22.3999 16.3001 22.2666 16.1668C22.1333 16.0335 21.9999 15.7668 21.8666 15.6335C21.7333 15.5001 21.5999 15.3668 21.4666 15.2335C21.3333 15.1001 21.0666 14.9668 20.9333 14.8335L20.7999 14.7001H22.1333C23.0666 14.7001 23.9999 15.5001 24.2666 16.5668L24.6666 18.1668C24.6666 18.3001 24.6666 18.4335 24.5333 18.5668Z" fill="white"/>
</svg>
