<svg width="30" height="29" viewBox="0 0 30 29" fill="none" xmlns="http://www.w3.org/2000/svg">
<path fill-rule="evenodd" clip-rule="evenodd" d="M9.14844 28.3605L6.9025 22.331L0.873047 20.0851L3.54839 14.2335L0.873047 8.3819L6.9025 6.13596L9.14844 0.106506L15 2.78185L20.8516 0.106506L23.0976 6.13596L29.127 8.3819L26.4517 14.2335L29.127 20.0851L23.0976 22.331L20.8516 28.3605L15 25.6851L9.14844 28.3605ZM15 22.753L19.3533 24.7433L21.0242 20.2577L25.5098 18.5868L23.5195 14.2335L25.5098 9.88018L21.0242 8.20931L19.3533 3.72368L15 5.71402L10.6467 3.72368L8.97585 8.20931L4.49022 9.88018L6.48056 14.2335L4.49022 18.5868L8.97585 20.2577L10.6467 24.7433L15 22.753ZM15 20.9002C11.3181 20.9002 8.33336 17.9154 8.33336 14.2335C8.33336 10.5516 11.3181 7.56682 15 7.56682C18.6819 7.56682 21.6667 10.5516 21.6667 14.2335C21.6667 17.9154 18.6819 20.9002 15 20.9002ZM15 18.2335C17.2092 18.2335 19 16.4426 19 14.2335C19 12.0243 17.2092 10.2335 15 10.2335C12.7909 10.2335 11 12.0243 11 14.2335C11 16.4426 12.7909 18.2335 15 18.2335Z" fill="white"/>
</svg>
