<svg width="32" height="27" viewBox="0 0 32 27" fill="none" xmlns="http://www.w3.org/2000/svg">
<path d="M7.3877 10.4935L3.94332 14.3185L2.56082 12.9367C1.97488 12.3507 1.02582 12.3507 0.43957 12.9367C-0.14668 13.5226 -0.146367 14.4717 0.43957 15.0579L2.93957 17.5579C3.22082 17.8435 3.60395 17.9998 3.94395 17.9998C3.95761 17.9998 3.96935 17.9998 3.98303 17.9988C4.39515 17.9881 4.78365 17.8094 5.05928 17.5037L9.55928 12.5037C10.114 11.8875 10.0632 10.9393 9.44796 10.3843C8.8877 9.83103 7.94395 9.88103 7.3877 10.4935ZM7.3877 0.496031L3.94332 4.31853L2.56082 2.93666C1.97488 2.35072 1.02582 2.35072 0.43957 2.93666C-0.14668 3.52259 -0.146367 4.47166 0.43957 5.05791L2.93957 7.55791C3.22082 7.84353 3.60395 7.99978 3.94395 7.99978C3.95761 7.99978 3.96935 7.99978 3.98303 7.99881C4.39515 7.98806 4.78365 7.80937 5.05928 7.50368L9.55928 2.50368C10.114 1.88749 10.0632 0.939306 9.44796 0.384306C8.8877 -0.168344 7.94395 -0.119594 7.3877 0.496031ZM3.0002 20.9435C1.34332 20.9435 0.00019531 22.2867 0.00019531 23.9435C0.00019531 25.6004 1.34332 26.9435 3.0002 26.9435C4.65707 26.9435 6.0002 25.6004 6.0002 23.9435C6.0002 22.3435 4.65707 20.9435 3.0002 20.9435ZM16.0002 5.99978H30.0002C31.1046 5.99978 32.0002 5.10416 32.0002 3.99978C32.0002 2.89541 31.1046 1.99978 30.0002 1.99978H16.0002C14.8939 1.99978 14.0002 2.89541 14.0002 3.99978C14.0002 5.10416 14.8939 5.99978 16.0002 5.99978ZM30.0002 11.9998H16.0002C14.8939 11.9998 14.0002 12.8935 14.0002 13.9998C14.0002 15.106 14.8958 15.9998 16.0002 15.9998H30.0002C31.1046 15.9998 32.0002 15.1042 32.0002 13.9998C32.0002 12.8954 31.1064 11.9998 30.0002 11.9998ZM30.0002 21.9998H12.0002C10.8958 21.9998 10.0002 22.8954 10.0002 23.9998C10.0002 25.1042 10.8958 25.9998 12.0002 25.9998H30.0002C31.1046 25.9998 32.0002 25.1042 32.0002 23.9998C32.0002 22.8954 31.1064 21.9998 30.0002 21.9998Z" fill="white"/>
</svg>
