<svg width="11" height="11" viewBox="0 0 11 11" fill="none" xmlns="http://www.w3.org/2000/svg">
<path d="M1.1 11C0.7975 11 0.538542 10.8924 0.323125 10.6773C0.107708 10.4621 0 10.2035 0 9.90137V2.21099C0 1.90886 0.107708 1.65023 0.323125 1.43508C0.538542 1.21993 0.7975 1.11236 1.1 1.11236H6.00875L4.90875 2.21099H1.1V9.90137H8.8V6.08365L9.9 4.98502V9.90137C9.9 10.2035 9.79229 10.4621 9.57688 10.6773C9.36146 10.8924 9.1025 11 8.8 11H1.1ZM3.3 7.70412V5.36954L8.34625 0.329588C8.45625 0.219725 8.58 0.137328 8.7175 0.082397C8.855 0.0274657 8.9925 0 9.13 0C9.27667 0 9.41646 0.0274657 9.54938 0.082397C9.68229 0.137328 9.80375 0.219725 9.91375 0.329588L10.6838 1.11236C10.7846 1.22222 10.8625 1.34353 10.9175 1.47628C10.9725 1.60903 11 1.74407 11 1.8814C11 2.01873 10.9748 2.15377 10.9244 2.28652C10.874 2.41927 10.7938 2.54057 10.6838 2.65044L5.6375 7.70412H3.3ZM4.4 6.60549H5.17L8.36 3.41948L7.975 3.03496L7.57625 2.65044L4.4 5.82272V6.60549Z" fill="white"/>
</svg>
