<svg width="18" height="20" viewBox="0 0 18 20" fill="none" xmlns="http://www.w3.org/2000/svg">
<path d="M17.1269 4.45903C16.9473 4.23706 16.7385 4.03439 16.5071 3.85352C16.538 4.42744 16.4848 5.0389 16.3466 5.68611C15.9691 7.45434 15.0665 8.95689 13.7364 10.031C12.4074 11.1045 10.7478 11.6719 8.93719 11.6719H6.2969L5.44226 15.6759C5.27442 16.4617 4.56967 17.0319 3.76635 17.0319H2.57616L2.36185 18.0156C2.30681 18.269 2.36929 18.5336 2.53192 18.7355C2.69447 18.9374 2.93988 19.0548 3.19917 19.0548H6.10872C6.51301 19.0548 6.86238 18.7722 6.94669 18.3769L7.94604 13.6947H11.2796C12.8921 13.6947 14.3654 13.1931 15.5405 12.2442C16.7161 11.2949 17.5151 9.96087 17.851 8.38678C18.1912 6.79514 17.9476 5.47364 17.1269 4.45903Z" fill="black"/>
<path d="M4.60446 15.4973L5.6038 10.8152H8.93733C10.5497 10.8152 12.0232 10.3136 13.1982 9.36462C14.3738 8.41529 15.1728 7.08127 15.5088 5.50722C15.8489 3.91554 15.6054 2.59408 14.7846 1.57947C13.9967 0.605205 12.6498 0 11.27 0H4.00708C3.60415 0 3.25565 0.280769 3.16985 0.674424L0.0196113 15.1362C-0.0355187 15.3894 0.026962 15.6541 0.189683 15.856C0.352141 16.0579 0.59747 16.1753 0.856843 16.1753H3.76648C4.17077 16.1753 4.51992 15.8927 4.60446 15.4973ZM7.27096 3.29428H9.55618C10.0938 3.29428 10.5745 3.51957 10.8751 3.91248C11.1944 4.32985 11.2878 4.90696 11.1312 5.49585C11.1292 5.50333 11.1274 5.51081 11.1255 5.51842C10.838 6.73172 9.64259 7.71885 8.46098 7.71885H6.27109L7.27096 3.29428Z" fill="black"/>
</svg>
