<svg width="19" height="18" viewBox="0 0 19 18" fill="none" xmlns="http://www.w3.org/2000/svg">
<path d="M6.93628 1.89031C7.74323 -0.593225 11.2568 -0.593223 12.0637 1.89031L12.3748 2.84759C12.7356 3.95826 13.7706 4.71024 14.9385 4.71024H15.945C18.5564 4.71024 19.6421 8.05181 17.5295 9.58672L16.7152 10.1783C15.7704 10.8648 15.375 12.0815 15.7359 13.1922L16.047 14.1495C16.8539 16.633 14.0114 18.6982 11.8988 17.1633L11.0845 16.5717C10.1397 15.8852 8.86033 15.8852 7.91553 16.5717L7.10123 17.1633C4.98861 18.6982 2.1461 16.633 2.95304 14.1495L3.26408 13.1922C3.62496 12.0815 3.22962 10.8648 2.28483 10.1783L1.47052 9.58672C-0.642097 8.05181 0.443646 4.71024 3.05499 4.71024H4.06153C5.22935 4.71024 6.26437 3.95826 6.62524 2.84759L6.93628 1.89031Z" fill="#FFB71C"/>
</svg>
