<svg width="20" height="20" viewBox="0 0 20 20" fill="none" xmlns="http://www.w3.org/2000/svg">
<path d="M3 6.97561V14.9756M7.5 6.97561V14.9756M12.5 6.97561V14.9756M17 6.97561V14.9756M1 16.5756V17.3756C1 17.9357 1 18.2157 1.10899 18.4296C1.20487 18.6178 1.35785 18.7708 1.54601 18.8666C1.75992 18.9756 2.03995 18.9756 2.6 18.9756H17.4C17.9601 18.9756 18.2401 18.9756 18.454 18.8666C18.6422 18.7708 18.7951 18.6178 18.891 18.4296C19 18.2157 19 17.9357 19 17.3756V16.5756C19 16.0156 19 15.7355 18.891 15.5216C18.7951 15.3335 18.6422 15.1805 18.454 15.0846C18.2401 14.9756 17.9601 14.9756 17.4 14.9756H2.6C2.03995 14.9756 1.75992 14.9756 1.54601 15.0846C1.35785 15.1805 1.20487 15.3335 1.10899 15.5216C1 15.7355 1 16.0156 1 16.5756ZM9.6529 1.05274L2.25291 2.69719C1.80585 2.79653 1.58232 2.8462 1.41546 2.9664C1.26829 3.07243 1.15273 3.2165 1.08115 3.38317C1 3.57212 1 3.80112 1 4.25908V5.37561C1 5.93566 1 6.21568 1.10899 6.42959C1.20487 6.61775 1.35785 6.77074 1.54601 6.86662C1.75992 6.97561 2.03995 6.97561 2.6 6.97561H17.4C17.9601 6.97561 18.2401 6.97561 18.454 6.86662C18.6422 6.77074 18.7951 6.61775 18.891 6.42959C19 6.21568 19 5.93566 19 5.37561V4.25909C19 3.80112 19 3.57213 18.9188 3.38317C18.8473 3.2165 18.7317 3.07243 18.5845 2.9664C18.4177 2.8462 18.1942 2.79653 17.7471 2.69719L10.3471 1.05274C10.2176 1.02396 10.1528 1.00956 10.0874 1.00383C10.0292 0.998725 9.9708 0.998725 9.9126 1.00383C9.8472 1.00956 9.7824 1.02396 9.6529 1.05274Z" stroke="black" stroke-width="2" stroke-linecap="round" stroke-linejoin="round"/>
</svg>
