<svg width="21" height="16" viewBox="0 0 21 16" fill="none" xmlns="http://www.w3.org/2000/svg">
<path d="M1.43753 12.1273C1.43753 13.0789 1.49359 13.3693 1.65171 13.6654C1.76311 13.8775 1.93664 14.0505 2.14909 14.1613C2.44378 14.3195 2.73415 14.3755 3.68578 14.3755H16.4393C17.3909 14.3755 17.6813 14.3195 17.9774 14.1613C18.1895 14.0499 18.3626 13.8764 18.4733 13.664C18.6315 13.3693 18.6875 13.0789 18.6875 12.1273V3.68626C18.6875 2.73464 18.6315 2.44427 18.4733 2.14814C18.3619 1.93602 18.1884 1.76298 17.976 1.6522C17.6813 1.49408 17.3909 1.43802 16.4393 1.43802H3.68578C2.73415 1.43802 2.44378 1.49408 2.14765 1.6522C1.93553 1.7636 1.7625 1.93713 1.65171 2.14958C1.49359 2.44426 1.43753 2.73464 1.43753 3.68626V12.1273ZM2.67029e-05 12.1273V3.68626C2.67029e-05 2.40402 0.133715 1.9397 0.383839 1.47252C0.633965 1.00245 1.00196 0.634454 1.47059 0.384329C1.93921 0.134204 2.40496 0.000516891 3.68434 0.000516891H16.4407C17.723 0.000516891 18.1873 0.134204 18.6545 0.384329C19.118 0.629163 19.4972 1.00783 19.7427 1.47108C19.9928 1.9397 20.1265 2.40545 20.1265 3.68483V12.1287C20.1265 13.411 19.9928 13.8753 19.7427 14.3425C19.4925 14.8125 19.1245 15.1805 18.6559 15.4306C18.1873 15.6808 17.7215 15.8145 16.4422 15.8145H3.68721C2.40496 15.8145 1.94065 15.6808 1.47346 15.4306C1.0034 15.1805 0.635401 14.8125 0.385277 14.3439C0.135151 13.8753 0.00146484 13.4095 0.00146484 12.1301L2.67029e-05 12.1273Z" fill="black"/>
<path d="M20.125 12.2188H0V10.7812H20.125V12.2188ZM20.125 9.34375H0V7.90625H20.125V9.34375ZM17.25 5.03125H11.5V3.59375H17.25V5.03125Z" fill="black"/>
</svg>
