<svg width="24" height="24" viewBox="0 0 24 24" fill="none" xmlns="http://www.w3.org/2000/svg">
<g clip-path="url(#clip0_366_515)">
<path d="M6 3C6 1.34531 7.07625 0 8.4 0H21.6C22.9238 0 24 1.34531 24 3V16.5C24 18.1547 22.9238 19.5 21.6 19.5H12.63C12.1875 18.3047 11.5087 17.2734 10.665 16.5H14.4V15C14.4 14.1703 14.9363 13.5 15.6 13.5H18C18.6638 13.5 19.2 14.1703 19.2 15V16.5H21.6V3H8.4V5.30156C7.695 4.79063 6.87375 4.5 6 4.5V3ZM6 6C6.47276 6 6.94089 6.1164 7.37766 6.34254C7.81443 6.56869 8.21129 6.90016 8.54558 7.31802C8.87988 7.73588 9.14505 8.23196 9.32597 8.77792C9.50688 9.32389 9.6 9.90905 9.6 10.5C9.6 11.0909 9.50688 11.6761 9.32597 12.2221C9.14505 12.768 8.87988 13.2641 8.54558 13.682C8.21129 14.0998 7.81443 14.4313 7.37766 14.6575C6.94089 14.8836 6.47276 15 6 15C5.52724 15 5.05911 14.8836 4.62234 14.6575C4.18557 14.4313 3.78871 14.0998 3.45442 13.682C3.12012 13.2641 2.85495 12.768 2.67403 12.2221C2.49312 11.6761 2.4 11.0909 2.4 10.5C2.4 9.90905 2.49312 9.32389 2.67403 8.77792C2.85495 8.23196 3.12012 7.73588 3.45442 7.31802C3.78871 6.90016 4.18557 6.56869 4.62234 6.34254C5.05911 6.1164 5.52724 6 6 6ZM4.99875 16.5H6.9975C9.76125 16.5 12 19.2984 12 22.7484C12 23.4375 11.5538 24 10.9987 24H1.00125C0.44625 24 0 23.4422 0 22.7484C0 19.2984 2.23875 16.5 4.99875 16.5Z" fill="#1976D2"/>
</g>
<defs>
<clipPath id="clip0_366_515">
<rect width="24" height="24" fill="white"/>
</clipPath>
</defs>
</svg>
