<svg width="24" height="24" viewBox="0 0 24 24" fill="none" xmlns="http://www.w3.org/2000/svg">
<path d="M12 24C10.4 22.7349 8.56667 21.7674 6.5 21.0977C4.43333 20.4279 2.26667 20.093 0 20.093V7.81395C2.24444 7.81395 4.4 8.15349 6.46667 8.83256C8.53333 9.51163 10.3778 10.493 12 11.7767C13.6222 10.493 15.4667 9.51163 17.5333 8.83256C19.6 8.15349 21.7556 7.81395 24 7.81395V20.093C21.7111 20.093 19.5389 20.4279 17.4833 21.0977C15.4278 21.7674 13.6 22.7349 12 24ZM12 21.0977C13.4 20.2233 14.8889 19.5256 16.4667 19.0047C18.0444 18.4837 19.6667 18.1395 21.3333 17.9721V10.2698C19.7111 10.5116 18.1167 11 16.55 11.7349C14.9833 12.4698 13.4667 13.4512 12 14.6791C10.5333 13.4512 9.01667 12.4698 7.45 11.7349C5.88333 11 4.28889 10.5116 2.66667 10.2698V17.9721C4.33333 18.1395 5.95556 18.4837 7.53333 19.0047C9.11111 19.5256 10.6 20.2233 12 21.0977ZM12 8.93023C10.5333 8.93023 9.27778 8.49302 8.23333 7.61861C7.18889 6.74419 6.66667 5.69302 6.66667 4.46512C6.66667 3.23721 7.18889 2.18605 8.23333 1.31163C9.27778 0.437209 10.5333 0 12 0C13.4667 0 14.7222 0.437209 15.7667 1.31163C16.8111 2.18605 17.3333 3.23721 17.3333 4.46512C17.3333 5.69302 16.8111 6.74419 15.7667 7.61861C14.7222 8.49302 13.4667 8.93023 12 8.93023ZM12 6.69767C12.7333 6.69767 13.3611 6.47907 13.8833 6.04186C14.4056 5.60465 14.6667 5.07907 14.6667 4.46512C14.6667 3.85116 14.4056 3.32558 13.8833 2.88837C13.3611 2.45116 12.7333 2.23256 12 2.23256C11.2667 2.23256 10.6389 2.45116 10.1167 2.88837C9.59445 3.32558 9.33333 3.85116 9.33333 4.46512C9.33333 5.07907 9.59445 5.60465 10.1167 6.04186C10.6389 6.47907 11.2667 6.69767 12 6.69767Z" fill="#1976D2"/>
</svg>
