<svg width="24" height="24" viewBox="0 0 24 24" fill="none" xmlns="http://www.w3.org/2000/svg">
<path d="M14.4 15.6C14.74 15.6 15.035 15.475 15.285 15.225C15.535 14.975 15.66 14.68 15.66 14.34C15.66 14 15.535 13.705 15.285 13.455C15.035 13.205 14.74 13.08 14.4 13.08C14.06 13.08 13.765 13.205 13.515 13.455C13.265 13.705 13.14 14 13.14 14.34C13.14 14.68 13.265 14.975 13.515 15.225C13.765 15.475 14.06 15.6 14.4 15.6ZM13.5 11.76H15.3C15.3 11.18 15.36 10.755 15.48 10.485C15.6 10.215 15.88 9.86 16.32 9.42C16.92 8.82 17.32 8.335 17.52 7.965C17.72 7.595 17.82 7.16 17.82 6.66C17.82 5.76 17.505 5.025 16.875 4.455C16.245 3.885 15.42 3.6 14.4 3.6C13.58 3.6 12.865 3.83 12.255 4.29C11.645 4.75 11.22 5.36 10.98 6.12L12.6 6.78C12.78 6.28 13.025 5.905 13.335 5.655C13.645 5.405 14 5.28 14.4 5.28C14.88 5.28 15.27 5.415 15.57 5.685C15.87 5.955 16.02 6.32 16.02 6.78C16.02 7.06 15.94 7.325 15.78 7.575C15.62 7.825 15.34 8.14 14.94 8.52C14.28 9.1 13.875 9.555 13.725 9.885C13.575 10.215 13.5 10.84 13.5 11.76ZM7.2 19.2C6.54 19.2 5.975 18.965 5.505 18.495C5.035 18.025 4.8 17.46 4.8 16.8V2.4C4.8 1.74 5.035 1.175 5.505 0.705C5.975 0.235 6.54 0 7.2 0H21.6C22.26 0 22.825 0.235 23.295 0.705C23.765 1.175 24 1.74 24 2.4V16.8C24 17.46 23.765 18.025 23.295 18.495C22.825 18.965 22.26 19.2 21.6 19.2H7.2ZM7.2 16.8H21.6V2.4H7.2V16.8ZM2.4 24C1.74 24 1.175 23.765 0.705 23.295C0.235 22.825 0 22.26 0 21.6V4.8H2.4V21.6H19.2V24H2.4Z" fill="#1976D2"/>
</svg>
