<svg width="42" height="30" viewBox="0 0 42 30" fill="none" xmlns="http://www.w3.org/2000/svg">
<path d="M10.9163 22.3335C12.3525 22.3335 13.7504 22.4939 15.1101 22.8147C16.4698 23.1356 17.8219 23.6168 19.1663 24.2585V6.20016C17.9136 5.46683 16.5844 4.91683 15.1788 4.55016C13.7733 4.1835 12.3525 4.00016 10.9163 4.00016C9.81634 4.00016 8.72398 4.10711 7.63926 4.321C6.55454 4.53488 5.50801 4.85572 4.49967 5.2835V23.4335C5.56912 23.0668 6.63092 22.7918 7.68509 22.6085C8.73926 22.4252 9.81634 22.3335 10.9163 22.3335ZM22.833 24.2585C24.1775 23.6168 25.5295 23.1356 26.8893 22.8147C28.249 22.4939 29.6469 22.3335 31.083 22.3335C32.183 22.3335 33.2601 22.4252 34.3143 22.6085C35.3684 22.7918 36.4302 23.0668 37.4997 23.4335V5.2835C36.4913 4.85572 35.4448 4.53488 34.3601 4.321C33.2754 4.10711 32.183 4.00016 31.083 4.00016C29.6469 4.00016 28.2261 4.1835 26.8205 4.55016C25.415 4.91683 24.0858 5.46683 22.833 6.20016V24.2585ZM20.9997 29.6668C19.533 28.5057 17.9441 27.6043 16.233 26.9627C14.5219 26.321 12.7497 26.0002 10.9163 26.0002C9.63301 26.0002 8.37259 26.1682 7.13509 26.5043C5.89759 26.8404 4.71356 27.3141 3.58301 27.9252C2.94134 28.2613 2.32259 28.246 1.72676 27.8793C1.13092 27.5127 0.833008 26.9779 0.833008 26.2752V4.1835C0.833008 3.84738 0.917036 3.52655 1.08509 3.221C1.25315 2.91544 1.50523 2.68627 1.84134 2.5335C3.2469 1.80016 4.71356 1.25016 6.24134 0.883496C7.76912 0.516829 9.32745 0.333496 10.9163 0.333496C12.6886 0.333496 14.4226 0.562663 16.1184 1.021C17.8143 1.47933 19.4413 2.16683 20.9997 3.0835C22.558 2.16683 24.1851 1.47933 25.8809 1.021C27.5768 0.562663 29.3108 0.333496 31.083 0.333496C32.6719 0.333496 34.2302 0.516829 35.758 0.883496C37.2858 1.25016 38.7524 1.80016 40.158 2.5335C40.4941 2.68627 40.7462 2.91544 40.9143 3.221C41.0823 3.52655 41.1663 3.84738 41.1663 4.1835V26.2752C41.1663 26.9779 40.8684 27.5127 40.2726 27.8793C39.6768 28.246 39.058 28.2613 38.4163 27.9252C37.2858 27.3141 36.1018 26.8404 34.8643 26.5043C33.6268 26.1682 32.3663 26.0002 31.083 26.0002C29.2497 26.0002 27.4775 26.321 25.7663 26.9627C24.0552 27.6043 22.4663 28.5057 20.9997 29.6668Z" fill="#FFB71C"/>
</svg>
