<svg width="40" height="35" viewBox="0 0 40 35" fill="none" xmlns="http://www.w3.org/2000/svg">
<path d="M10 4.375C10 1.96191 11.7938 0 14 0H36C38.2062 0 40 1.96191 40 4.375V24.0625C40 26.4756 38.2062 28.4375 36 28.4375H21.05C20.3125 26.6943 19.1812 25.1904 17.775 24.0625H24V21.875C24 20.665 24.8937 19.6875 26 19.6875H30C31.1063 19.6875 32 20.665 32 21.875V24.0625H36V4.375H14V7.73145C12.825 6.98633 11.4562 6.5625 10 6.5625V4.375ZM10 8.75C10.7879 8.75 11.5681 8.91974 12.2961 9.24954C13.0241 9.57934 13.6855 10.0627 14.2426 10.6721C14.7998 11.2815 15.2417 12.0049 15.5433 12.8011C15.8448 13.5973 16 14.4507 16 15.3125C16 16.1743 15.8448 17.0277 15.5433 17.8239C15.2417 18.6201 14.7998 19.3435 14.2426 19.9529C13.6855 20.5623 13.0241 21.0457 12.2961 21.3755C11.5681 21.7053 10.7879 21.875 10 21.875C9.21207 21.875 8.43185 21.7053 7.7039 21.3755C6.97595 21.0457 6.31451 20.5623 5.75736 19.9529C5.20021 19.3435 4.75825 18.6201 4.45672 17.8239C4.15519 17.0277 4 16.1743 4 15.3125C4 14.4507 4.15519 13.5973 4.45672 12.8011C4.75825 12.0049 5.20021 11.2815 5.75736 10.6721C6.31451 10.0627 6.97595 9.57934 7.7039 9.24954C8.43185 8.91974 9.21207 8.75 10 8.75ZM8.33125 24.0625H11.6625C16.2688 24.0625 20 28.1436 20 33.1748C20 34.1797 19.2562 35 18.3312 35H1.66875C0.74375 35 0 34.1865 0 33.1748C0 28.1436 3.73125 24.0625 8.33125 24.0625Z" fill="#FFB71C"/>
</svg>
