<svg width="37" height="27" viewBox="0 0 37 27" fill="none" xmlns="http://www.w3.org/2000/svg">
<path d="M21.75 10.0875V7.325C22.6437 6.94583 23.5578 6.66146 24.4922 6.47187C25.4266 6.28229 26.4083 6.1875 27.4375 6.1875C28.1417 6.1875 28.8323 6.24167 29.5094 6.35C30.1865 6.45833 30.85 6.59375 31.5 6.75625V9.35625C30.85 9.1125 30.1932 8.92969 29.5297 8.80781C28.8661 8.68594 28.1687 8.625 27.4375 8.625C26.4083 8.625 25.4198 8.75365 24.4719 9.01094C23.524 9.26823 22.6167 9.62708 21.75 10.0875ZM21.75 19.025V16.2625C22.6437 15.8833 23.5578 15.599 24.4922 15.4094C25.4266 15.2198 26.4083 15.125 27.4375 15.125C28.1417 15.125 28.8323 15.1792 29.5094 15.2875C30.1865 15.3958 30.85 15.5312 31.5 15.6937V18.2937C30.85 18.05 30.1932 17.8672 29.5297 17.7453C28.8661 17.6234 28.1687 17.5625 27.4375 17.5625C26.4083 17.5625 25.4198 17.6844 24.4719 17.9281C23.524 18.1719 22.6167 18.5375 21.75 19.025ZM21.75 14.5562V11.7937C22.6437 11.4146 23.5578 11.1302 24.4922 10.9406C25.4266 10.751 26.4083 10.6562 27.4375 10.6562C28.1417 10.6562 28.8323 10.7104 29.5094 10.8187C30.1865 10.9271 30.85 11.0625 31.5 11.225V13.825C30.85 13.5812 30.1932 13.3984 29.5297 13.2766C28.8661 13.1547 28.1687 13.0938 27.4375 13.0938C26.4083 13.0938 25.4198 13.2224 24.4719 13.4797C23.524 13.737 22.6167 14.0958 21.75 14.5562ZM9.5625 20C10.8354 20 12.0745 20.1422 13.2797 20.4266C14.4849 20.7109 15.6833 21.1375 16.875 21.7062V5.7C15.7646 5.05 14.5865 4.5625 13.3406 4.2375C12.0948 3.9125 10.8354 3.75 9.5625 3.75C8.5875 3.75 7.61927 3.84479 6.65781 4.03437C5.69635 4.22396 4.76875 4.50833 3.875 4.8875V20.975C4.82292 20.65 5.76406 20.4062 6.69844 20.2437C7.63281 20.0812 8.5875 20 9.5625 20ZM20.125 21.7062C21.3167 21.1375 22.5151 20.7109 23.7203 20.4266C24.9255 20.1422 26.1646 20 27.4375 20C28.4125 20 29.3672 20.0812 30.3016 20.2437C31.2359 20.4062 32.1771 20.65 33.125 20.975V4.8875C32.2312 4.50833 31.3036 4.22396 30.3422 4.03437C29.3807 3.84479 28.4125 3.75 27.4375 3.75C26.1646 3.75 24.9052 3.9125 23.6594 4.2375C22.4135 4.5625 21.2354 5.05 20.125 5.7V21.7062ZM18.5 26.5C17.2 25.4708 15.7917 24.6719 14.275 24.1031C12.7583 23.5344 11.1875 23.25 9.5625 23.25C8.425 23.25 7.30781 23.399 6.21094 23.6969C5.11406 23.9948 4.06458 24.4146 3.0625 24.9562C2.49375 25.2542 1.94531 25.2406 1.41719 24.9156C0.889062 24.5906 0.625 24.1167 0.625 23.4937V3.9125C0.625 3.61458 0.699479 3.33021 0.848437 3.05937C0.997396 2.78854 1.22083 2.58542 1.51875 2.45C2.76458 1.8 4.06458 1.3125 5.41875 0.9875C6.77292 0.6625 8.15417 0.5 9.5625 0.5C11.1333 0.5 12.6703 0.703125 14.1734 1.10938C15.6766 1.51562 17.1187 2.125 18.5 2.9375C19.8812 2.125 21.3234 1.51562 22.8266 1.10938C24.3297 0.703125 25.8667 0.5 27.4375 0.5C28.8458 0.5 30.2271 0.6625 31.5812 0.9875C32.9354 1.3125 34.2354 1.8 35.4812 2.45C35.7792 2.58542 36.0026 2.78854 36.1516 3.05937C36.3005 3.33021 36.375 3.61458 36.375 3.9125V23.4937C36.375 24.1167 36.1109 24.5906 35.5828 24.9156C35.0547 25.2406 34.5062 25.2542 33.9375 24.9562C32.9354 24.4146 31.8859 23.9948 30.7891 23.6969C29.6922 23.399 28.575 23.25 27.4375 23.25C25.8125 23.25 24.2417 23.5344 22.725 24.1031C21.2083 24.6719 19.8 25.4708 18.5 26.5Z" fill="#FFB71C"/>
</svg>
