<svg width="24" height="32" viewBox="0 0 24 32" fill="none" xmlns="http://www.w3.org/2000/svg">
<path d="M9.6 1.86875L10.6 0.5375C10.85 0.2 11.25 0 11.6687 0C12.4 0 13 0.6 13 1.33125V2.71875C13 3.5375 13.3375 4.325 13.9312 4.8875L19.225 9.9375C22.275 12.85 24 16.8875 24 21.1063C24 27.125 19.125 32 13.1062 32H12C5.375 32 0 26.625 0 20V19.7625C0 16.7125 1.2125 13.7875 3.36875 11.6313L3.5875 11.4125C3.85 11.15 4.2125 11 4.5875 11C5.36875 11 6 11.6313 6 12.4125V18C6 20.2062 7.79375 22 10 22C12.2063 22 14 20.2062 14 18V17.7563C14 16.6313 13.55 15.55 12.7563 14.7563L10.3438 12.3438C8.84375 10.8438 8 8.8 8 6.675C8 4.94375 8.5625 3.25 9.6 1.86875Z" fill="url(#paint0_linear_366_620)"/>
<defs>
<linearGradient id="paint0_linear_366_620" x1="12" y1="0" x2="12" y2="32" gradientUnits="userSpaceOnUse">
<stop stop-color="#FF0004"/>
<stop offset="1" stop-color="#FFBE33"/>
</linearGradient>
</defs>
</svg>
