<svg width="18" height="34" viewBox="0 0 18 34" fill="none" xmlns="http://www.w3.org/2000/svg">
<path d="M7.21253 33.5V29.5583C5.59309 29.1917 4.19517 28.4889 3.01878 27.45C1.84239 26.4111 0.979199 24.9444 0.429199 23.05L3.82087 21.675C4.2792 23.1417 4.95906 24.2569 5.86045 25.0208C6.76184 25.7847 7.94587 26.1667 9.41253 26.1667C10.6653 26.1667 11.7271 25.884 12.5979 25.3188C13.4688 24.7535 13.9042 23.875 13.9042 22.6833C13.9042 21.6139 13.5681 20.766 12.8959 20.1396C12.2236 19.5132 10.6653 18.8028 8.22087 18.0083C5.59309 17.1833 3.79031 16.1979 2.81253 15.0521C1.83475 13.9062 1.34587 12.5083 1.34587 10.8583C1.34587 8.87222 1.98753 7.32917 3.27087 6.22917C4.5542 5.12917 5.86809 4.50278 7.21253 4.35V0.5H10.8792V4.35C12.407 4.59444 13.6674 5.15208 14.6604 6.02292C15.6535 6.89375 16.3792 7.95556 16.8375 9.20833L13.4459 10.675C13.0792 9.69722 12.5598 8.96389 11.8875 8.475C11.2153 7.98611 10.2986 7.74167 9.13753 7.74167C7.79309 7.74167 6.76948 8.03958 6.0667 8.63542C5.36392 9.23125 5.01253 9.97222 5.01253 10.8583C5.01253 11.8667 5.47087 12.6611 6.38753 13.2417C7.3042 13.8222 8.89309 14.4333 11.1542 15.075C13.2625 15.6861 14.8591 16.6562 15.9438 17.9854C17.0285 19.3146 17.5709 20.85 17.5709 22.5917C17.5709 24.7611 16.9292 26.4111 15.6459 27.5417C14.3625 28.6722 12.7736 29.375 10.8792 29.65V33.5H7.21253Z" fill="#FFB71C"/>
</svg>
