<svg width="38" height="20" viewBox="0 0 38 20" fill="none" xmlns="http://www.w3.org/2000/svg">
<path d="M16.2687 10C15.5299 10 14.9229 9.72292 14.4479 9.16875C13.9729 8.61458 13.8014 7.96806 13.9333 7.22917L14.4083 4.37917C14.6194 3.24444 15.1538 2.31424 16.0115 1.58854C16.8691 0.862847 17.8653 0.5 19 0.5C20.1611 0.5 21.1705 0.862847 22.0281 1.58854C22.8858 2.31424 23.4201 3.24444 23.6313 4.37917L24.1062 7.22917C24.2382 7.96806 24.0667 8.61458 23.5917 9.16875C23.1167 9.72292 22.5097 10 21.7708 10H16.2687ZM17.2188 6.83333H20.8208L20.5042 4.89375C20.4514 4.52431 20.2799 4.22743 19.9896 4.00312C19.6993 3.77882 19.3694 3.66667 19 3.66667C18.6306 3.66667 18.3073 3.77882 18.0302 4.00312C17.7531 4.22743 17.5882 4.52431 17.5354 4.89375L17.2188 6.83333ZM4.90833 11.5437C4.30139 11.5701 3.78021 11.4514 3.34479 11.1875C2.90937 10.9236 2.62569 10.5146 2.49375 9.96042C2.44097 9.72292 2.42778 9.48542 2.45417 9.24792C2.48056 9.01042 2.54653 8.78611 2.65208 8.575C2.65208 8.60139 2.63889 8.54861 2.6125 8.41667C2.55972 8.36389 2.42778 8.04722 2.21667 7.46667C2.16389 7.15 2.20347 6.84653 2.33542 6.55625C2.46736 6.26597 2.63889 6.01528 2.85 5.80417L2.92917 5.725C2.98194 5.22361 3.18646 4.80139 3.54271 4.45833C3.89896 4.11528 4.34097 3.94375 4.86875 3.94375C4.94792 3.94375 5.19861 3.99653 5.62083 4.10208L5.73958 4.0625C5.87153 3.93056 6.04306 3.8316 6.25417 3.76562C6.46528 3.69965 6.68958 3.66667 6.92708 3.66667C7.21736 3.66667 7.47465 3.71285 7.69896 3.80521C7.92326 3.89757 8.10139 4.03611 8.23333 4.22083C8.25972 4.22083 8.27951 4.22743 8.29271 4.24062C8.3059 4.25382 8.32569 4.26042 8.35208 4.26042C8.72153 4.28681 9.04479 4.39896 9.32187 4.59687C9.59896 4.79479 9.80347 5.06528 9.93542 5.40833C9.98819 5.59306 10.008 5.77118 9.99479 5.94271C9.9816 6.11424 9.94861 6.27917 9.89583 6.4375C9.89583 6.46389 9.90903 6.51667 9.93542 6.59583C10.1201 6.78056 10.2653 6.98507 10.3708 7.20937C10.4764 7.43368 10.5292 7.66458 10.5292 7.90208C10.5292 8.00764 10.45 8.28472 10.2917 8.73333C10.2653 8.78611 10.2653 8.83889 10.2917 8.89167L10.3708 9.525C10.3708 10.0792 10.1399 10.5542 9.67812 10.95C9.21632 11.3458 8.65556 11.5437 7.99583 11.5437H4.90833ZM31.6667 11.5833C30.7958 11.5833 30.0503 11.2733 29.4302 10.6531C28.8101 10.033 28.5 9.2875 28.5 8.41667C28.5 8.1 28.5462 7.80312 28.6385 7.52604C28.7309 7.24896 28.8563 6.97847 29.0146 6.71458L27.9062 5.725C27.6424 5.51389 27.5962 5.25 27.7677 4.93333C27.9392 4.61667 28.1833 4.45833 28.5 4.45833H31.6667C32.5375 4.45833 33.283 4.7684 33.9031 5.38854C34.5233 6.00868 34.8333 6.75417 34.8333 7.625V8.41667C34.8333 9.2875 34.5233 10.033 33.9031 10.6531C33.283 11.2733 32.5375 11.5833 31.6667 11.5833ZM0 19.5V17.0063C0 15.8451 0.587153 14.9149 1.76146 14.2156C2.93576 13.5163 4.45972 13.1667 6.33333 13.1667C6.67639 13.1667 7.00625 13.1733 7.32292 13.1865C7.63958 13.1997 7.94306 13.2326 8.23333 13.2854C7.86389 13.8132 7.58681 14.3806 7.40208 14.9875C7.21736 15.5944 7.125 16.241 7.125 16.9271V19.5H0ZM9.5 19.5V16.9271C9.5 15.2118 10.3774 13.8264 12.1323 12.7708C13.8872 11.7153 16.1764 11.1875 19 11.1875C21.85 11.1875 24.1458 11.7153 25.8875 12.7708C27.6292 13.8264 28.5 15.2118 28.5 16.9271V19.5H9.5ZM31.6667 13.1667C33.5667 13.1667 35.0972 13.5163 36.2583 14.2156C37.4194 14.9149 38 15.8451 38 17.0063V19.5H30.875V16.9271C30.875 16.241 30.7892 15.5944 30.6177 14.9875C30.4462 14.3806 30.1889 13.8132 29.8458 13.2854C30.1361 13.2326 30.433 13.1997 30.7365 13.1865C31.0399 13.1733 31.35 13.1667 31.6667 13.1667ZM19 14.3542C17.4958 14.3542 16.15 14.5521 14.9625 14.9479C13.775 15.3437 13.0757 15.8056 12.8646 16.3333H25.175C24.9375 15.8056 24.2316 15.3437 23.0573 14.9479C21.883 14.5521 20.5306 14.3542 19 14.3542Z" fill="#FFB71C"/>
</svg>
