<svg width="29" height="37" viewBox="0 0 29 37" fill="none" xmlns="http://www.w3.org/2000/svg">
<path d="M14.5 18.5C16.9469 18.5 19.4995 18.2456 22.1578 17.7369C24.8161 17.2281 27.0969 16.5575 29 15.725V34.225C27.1875 35.0575 24.9823 35.7281 22.3844 36.2369C19.7865 36.7456 17.1583 37 14.5 37C11.8417 37 9.21354 36.7456 6.61563 36.2369C4.01771 35.7281 1.8125 35.0575 0 34.225V15.725C1.90313 16.5575 4.18385 17.2281 6.84219 17.7369C9.50052 18.2456 12.0531 18.5 14.5 18.5ZM25.375 31.45V20.8125C23.8646 21.2442 22.1201 21.5833 20.1414 21.83C18.1628 22.0767 16.2823 22.2 14.5 22.2C12.7177 22.2 10.8372 22.0767 8.85859 21.83C6.87995 21.5833 5.13542 21.2442 3.625 20.8125V31.45C5.13542 32.005 6.8724 32.4521 8.83594 32.7913C10.7995 33.1304 12.6875 33.3 14.5 33.3C16.3125 33.3 18.2005 33.1304 20.1641 32.7913C22.1276 32.4521 23.8646 32.005 25.375 31.45ZM14.5 0C16.4938 0 18.2005 0.724583 19.6203 2.17375C21.0401 3.62292 21.75 5.365 21.75 7.4C21.75 9.435 21.0401 11.1771 19.6203 12.6263C18.2005 14.0754 16.4938 14.8 14.5 14.8C12.5062 14.8 10.7995 14.0754 9.37969 12.6263C7.9599 11.1771 7.25 9.435 7.25 7.4C7.25 5.365 7.9599 3.62292 9.37969 2.17375C10.7995 0.724583 12.5062 0 14.5 0ZM14.5 11.1C15.4969 11.1 16.3503 10.7377 17.0602 10.0131C17.7701 9.28854 18.125 8.4175 18.125 7.4C18.125 6.3825 17.7701 5.51146 17.0602 4.78688C16.3503 4.06229 15.4969 3.7 14.5 3.7C13.5031 3.7 12.6497 4.06229 11.9398 4.78688C11.2299 5.51146 10.875 6.3825 10.875 7.4C10.875 8.4175 11.2299 9.28854 11.9398 10.0131C12.6497 10.7377 13.5031 11.1 14.5 11.1Z" fill="#FFB71C"/>
</svg>
