<svg width="18" height="16" viewBox="0 0 18 16" fill="none" xmlns="http://www.w3.org/2000/svg">
<path d="M17.5316 9.24842C18.0058 8.76024 18.0057 7.96758 17.5312 7.47958L11.4583 1.23319C10.9838 0.745186 10.2135 0.745333 9.73921 1.23351C9.26494 1.7217 9.2651 2.51435 9.73955 3.00235L13.7439 7.11717L2.10129 7.1194C1.4296 7.11952 0.887045 7.678 0.887177 8.36914C0.887309 9.06028 1.43008 9.61855 2.10177 9.61842L13.7406 9.61619L9.74539 13.7325C9.27113 14.2207 9.27128 15.0134 9.74573 15.5014C10.2202 15.9894 10.9905 15.9892 11.4648 15.501L17.5354 9.25233L17.5316 9.24842Z" fill="#1976D2"/>
</svg>
