<svg width="18" height="16" viewBox="0 0 18 16" fill="none" xmlns="http://www.w3.org/2000/svg">
<path d="M1.8 16C1.305 16 0.88125 15.8259 0.52875 15.4778C0.17625 15.1296 0 14.7111 0 14.2222V3.55556C0 3.06667 0.17625 2.64815 0.52875 2.3C0.88125 1.95185 1.305 1.77778 1.8 1.77778H10.89C10.83 2.07407 10.8 2.37037 10.8 2.66667C10.8 2.96296 10.83 3.25926 10.89 3.55556H1.8L9 8L12.285 5.97778C12.495 6.17037 12.7238 6.33704 12.9713 6.47778C13.2188 6.61852 13.4775 6.74074 13.7475 6.84444L9 9.77778L1.8 5.33333V14.2222H16.2V7.02222C16.545 6.94815 16.8675 6.84444 17.1675 6.71111C17.4675 6.57778 17.745 6.41481 18 6.22222V14.2222C18 14.7111 17.8238 15.1296 17.4713 15.4778C17.1188 15.8259 16.695 16 16.2 16H1.8ZM15.3 5.33333C14.55 5.33333 13.9125 5.07407 13.3875 4.55556C12.8625 4.03704 12.6 3.40741 12.6 2.66667C12.6 1.92593 12.8625 1.2963 13.3875 0.777778C13.9125 0.259259 14.55 0 15.3 0C16.05 0 16.6875 0.259259 17.2125 0.777778C17.7375 1.2963 18 1.92593 18 2.66667C18 3.40741 17.7375 4.03704 17.2125 4.55556C16.6875 5.07407 16.05 5.33333 15.3 5.33333Z" fill="white"/>
</svg>
