<svg width="16" height="12" viewBox="0 0 16 12" fill="none" xmlns="http://www.w3.org/2000/svg">
<path d="M15.7274 1.42545C15.1491 1.65977 14.5197 1.82841 13.8714 1.89409C14.5444 1.51853 15.0485 0.925213 15.2889 0.225451C14.6573 0.578331 13.9654 0.825776 13.2438 0.956811C12.9423 0.654018 12.5775 0.4128 12.1724 0.248186C11.7672 0.0835725 11.3303 -0.000908491 10.8888 7.36757e-06C9.10267 7.36757e-06 7.6662 1.35977 7.6662 3.02841C7.6662 3.26273 7.69644 3.49705 7.74558 3.72249C5.07111 3.59113 2.68582 2.39113 1.10003 0.553853C0.811085 1.01737 0.659667 1.54514 0.661531 2.08225C0.661531 3.13314 1.23045 4.05977 2.098 4.60474C1.58674 4.58583 1.08745 4.45385 0.64074 4.21953V4.25681C0.64074 5.72841 1.74833 6.94793 3.22449 7.22841C2.94733 7.29602 2.6622 7.33061 2.37584 7.33136C2.16604 7.33136 1.96758 7.31184 1.76723 7.28521C2.17549 8.48521 3.36436 9.35681 4.78003 9.38521C3.67244 10.2 2.28512 10.6793 0.778717 10.6793C0.508434 10.6793 0.258942 10.6704 0 10.642C1.42891 11.503 3.12432 12 4.95014 12C10.8775 12 14.1209 7.38817 14.1209 3.38521C14.1209 3.25385 14.1209 3.12249 14.1114 2.99113C14.7389 2.55977 15.2889 2.02545 15.7274 1.42545Z" fill="white"/>
</svg>
