<svg width="16" height="10" viewBox="0 0 16 10" fill="none" xmlns="http://www.w3.org/2000/svg">
<path d="M13.3143 0.829529C12.2945 0.439129 11.2184 0.160494 10.1128 0.000569544C10.1028 -0.000837589 10.0925 0.000377705 10.0833 0.00404837C10.0742 0.00771903 10.0666 0.0136648 10.0617 0.021068C9.92308 0.226053 9.76974 0.494173 9.6626 0.704078C8.47087 0.553216 7.25868 0.553216 6.06696 0.704078C5.94744 0.470248 5.81223 0.242217 5.66198 0.021068C5.65694 0.0137459 5.64936 0.00786861 5.64023 0.00420974C5.63111 0.000550877 5.62087 -0.000718153 5.61087 0.000569544C4.50504 0.159638 3.42871 0.438418 2.40939 0.829529C2.40066 0.832306 2.39337 0.837522 2.38874 0.844288C0.350098 3.38528 -0.209203 5.86396 0.065041 8.31148C0.0660239 8.32296 0.0748705 8.33444 0.085683 8.34182C1.27282 9.07535 2.60066 9.63541 4.01258 9.9981C4.02255 10.0007 4.03326 10.0006 4.04316 9.99783C4.05306 9.99502 4.06163 9.98966 4.06763 9.98252C4.37038 9.63815 4.63971 9.27491 4.87168 8.89282C4.87652 8.88495 4.87817 8.87599 4.8764 8.86727C4.87463 8.85855 4.86953 8.85055 4.86186 8.84444C4.85678 8.84044 4.85075 8.83737 4.84416 8.83542C4.42067 8.69966 4.01051 8.53654 3.61744 8.34756C3.60646 8.34237 3.59829 8.33386 3.59463 8.32378C3.59097 8.31371 3.5921 8.30285 3.59778 8.29344C3.60112 8.28734 3.60618 8.282 3.61252 8.27787C3.69509 8.22621 3.77766 8.17209 3.85629 8.11798C3.86324 8.11332 3.87157 8.11032 3.88041 8.10931C3.88924 8.1083 3.89823 8.10931 3.90642 8.11224C6.48078 9.09289 9.26745 9.09289 11.8104 8.11224C11.8188 8.10917 11.8282 8.10808 11.8374 8.1091C11.8465 8.11011 11.8552 8.11318 11.8625 8.11798C11.9411 8.17209 12.0237 8.22621 12.1062 8.27787C12.1129 8.28194 12.1183 8.28734 12.1219 8.29358C12.1254 8.29981 12.1271 8.30669 12.1267 8.31359C12.1263 8.3205 12.1239 8.32722 12.1196 8.33314C12.1154 8.33907 12.1094 8.34402 12.1023 8.34756C11.7101 8.53827 11.2994 8.70119 10.8746 8.83461C10.8678 8.83665 10.8617 8.83991 10.8566 8.84417C10.8515 8.84842 10.8475 8.85355 10.8451 8.8592C10.8428 8.86468 10.8419 8.87049 10.8424 8.87627C10.8429 8.88205 10.8448 8.88768 10.848 8.89282C11.084 9.27409 11.3543 9.63815 11.6511 9.98252C11.6571 9.98966 11.6657 9.99502 11.6756 9.99783C11.6855 10.0006 11.6962 10.0007 11.7062 9.9981C13.1204 9.63653 14.4504 9.07641 15.639 8.34182C15.6449 8.33838 15.6499 8.33387 15.6534 8.32862C15.657 8.32337 15.6591 8.31751 15.6596 8.31148C15.9879 5.48187 15.1101 3.02369 13.3339 0.845108C13.3321 0.84151 13.3295 0.838264 13.3261 0.835581C13.3227 0.832897 13.3187 0.830836 13.3143 0.829529ZM5.25602 6.82083C4.48047 6.82083 3.84253 6.2272 3.84253 5.49909C3.84253 4.77016 4.46867 4.17652 5.25602 4.17652C6.04926 4.17652 6.6813 4.77508 6.66951 5.49909C6.66951 6.2272 6.04337 6.82083 5.25602 6.82083ZM10.4814 6.82083C9.70683 6.82083 9.06791 6.2272 9.06791 5.49909C9.06791 4.77016 9.69406 4.17652 10.4814 4.17652C11.2746 4.17652 11.9077 4.77508 11.8949 5.49909C11.8949 6.2272 11.2746 6.82083 10.4814 6.82083Z" fill="white"/>
</svg>
