<svg width="16" height="15" viewBox="0 0 16 15" fill="none" xmlns="http://www.w3.org/2000/svg">
<path fill-rule="evenodd" clip-rule="evenodd" d="M4.62172 0.045C5.46028 0.00818181 5.72764 0 7.86371 0C9.99978 0 10.2671 0.00886363 11.105 0.045C11.9428 0.0811364 12.5147 0.208636 13.0152 0.393409C13.5392 0.582273 14.0146 0.8775 14.4078 1.25932C14.8081 1.63364 15.1169 2.08636 15.3142 2.58682C15.5087 3.06409 15.6416 3.60955 15.6802 4.40727C15.7188 5.20841 15.7274 5.46341 15.7274 7.5C15.7274 9.53727 15.7181 9.79227 15.6802 10.592C15.6424 11.3898 15.5087 11.9352 15.3142 12.4125C15.1169 12.913 14.8076 13.3665 14.4078 13.7414C14.0146 14.1232 13.5392 14.4177 13.0152 14.6059C12.5147 14.7914 11.9428 14.9182 11.1064 14.955C10.2671 14.9918 9.99978 15 7.86371 15C5.72764 15 5.46028 14.9911 4.62172 14.955C3.78531 14.9189 3.2134 14.7914 2.71298 14.6059C2.1882 14.4177 1.71273 14.1227 1.31967 13.7414C0.919611 13.3668 0.61002 12.9136 0.412487 12.4132C0.218754 11.9359 0.085786 11.3905 0.0471823 10.5927C0.00857858 9.79159 0 9.53659 0 7.5C0 5.46273 0.00929347 5.20773 0.0471823 4.40864C0.0850711 3.60955 0.218754 3.06409 0.412487 2.58682C0.610312 2.08642 0.920139 1.63317 1.32039 1.25864C1.71289 0.87716 2.18788 0.581893 2.71227 0.393409C3.21268 0.208636 3.78531 0.0818182 4.62172 0.045ZM11.0414 1.395C10.2121 1.35886 9.96332 1.35136 7.86371 1.35136C5.7641 1.35136 5.51532 1.35886 4.68606 1.395C3.91899 1.42841 3.50293 1.55045 3.22555 1.65341C2.85882 1.78977 2.59646 1.95136 2.32123 2.21386C2.06032 2.45594 1.85954 2.75065 1.73359 3.07636C1.62564 3.34091 1.49768 3.73773 1.46265 4.46932C1.42476 5.26023 1.4169 5.4975 1.4169 7.5C1.4169 9.5025 1.42476 9.73977 1.46265 10.5307C1.49768 11.2623 1.62564 11.6591 1.73359 11.9236C1.85941 12.2489 2.06029 12.5441 2.32123 12.7861C2.57501 13.035 2.88455 13.2266 3.22555 13.3466C3.50293 13.4495 3.91899 13.5716 4.68606 13.605C5.51532 13.6411 5.76339 13.6486 7.86371 13.6486C9.96404 13.6486 10.2121 13.6411 11.0414 13.605C11.8084 13.5716 12.2245 13.4495 12.5019 13.3466C12.8686 13.2102 13.131 13.0486 13.4062 12.7861C13.6671 12.5441 13.868 12.2489 13.9938 11.9236C14.1018 11.6591 14.2297 11.2623 14.2648 10.5307C14.3027 9.73977 14.3105 9.5025 14.3105 7.5C14.3105 5.4975 14.3027 5.26023 14.2648 4.46932C14.2297 3.73773 14.1018 3.34091 13.9938 3.07636C13.8509 2.72659 13.6814 2.47636 13.4062 2.21386C13.1524 1.96505 12.8434 1.77355 12.5019 1.65341C12.2245 1.55045 11.8084 1.42841 11.0414 1.395ZM6.8593 9.81205C7.42024 10.0347 8.04485 10.0648 8.62644 9.89708C9.20804 9.72936 9.71054 9.37426 10.0481 8.89244C10.3857 8.41062 10.5374 7.83196 10.4774 7.2553C10.4173 6.67864 10.1492 6.13975 9.71883 5.73068C9.44449 5.46919 9.11277 5.26896 8.74755 5.14442C8.38233 5.01987 7.9927 4.97411 7.60671 5.01042C7.22072 5.04673 6.84797 5.16421 6.5153 5.35441C6.18263 5.5446 5.89832 5.80278 5.68282 6.11035C5.46733 6.41793 5.32601 6.76724 5.26906 7.13316C5.2121 7.49907 5.24092 7.87247 5.35343 8.22649C5.46594 8.5805 5.65936 8.90633 5.91975 9.18049C6.18014 9.45466 6.50102 9.67035 6.8593 9.81205ZM5.00561 4.77409C5.38094 4.41612 5.82653 4.13216 6.31692 3.93843C6.80731 3.7447 7.33291 3.64498 7.86371 3.64498C8.39451 3.64498 8.92011 3.7447 9.41051 3.93843C9.9009 4.13216 10.3465 4.41612 10.7218 4.77409C11.0971 5.13206 11.3949 5.55704 11.598 6.02475C11.8011 6.49246 11.9057 6.99375 11.9057 7.5C11.9057 8.00625 11.8011 8.50754 11.598 8.97525C11.3949 9.44296 11.0971 9.86794 10.7218 10.2259C9.9638 10.9489 8.93571 11.355 7.86371 11.355C6.79172 11.355 5.76363 10.9489 5.00561 10.2259C4.24759 9.50295 3.82175 8.52241 3.82175 7.5C3.82175 6.47759 4.24759 5.49705 5.00561 4.77409ZM12.8021 4.21909C12.8951 4.13541 12.9696 4.03478 13.0211 3.92316C13.0726 3.81155 13.1001 3.69121 13.102 3.56927C13.1038 3.44734 13.08 3.32628 13.0319 3.21328C12.9839 3.10028 12.9125 2.99762 12.8221 2.91139C12.7317 2.82516 12.6241 2.75711 12.5056 2.71126C12.3871 2.66542 12.2602 2.64271 12.1323 2.64449C12.0045 2.64627 11.8783 2.67249 11.7613 2.72161C11.6442 2.77073 11.5387 2.84175 11.451 2.93045C11.2804 3.10297 11.1869 3.33213 11.1906 3.56927C11.1942 3.80641 11.2946 4.03287 11.4704 4.20057C11.6462 4.36828 11.8837 4.46402 12.1323 4.46748C12.381 4.47093 12.6212 4.38183 12.8021 4.21909Z" fill="#FFB71C"/>
</svg>
