<svg width="18" height="18" viewBox="0 0 18 18" fill="none" xmlns="http://www.w3.org/2000/svg">
<path d="M12.5376 0.677252L10.8695 2.34527L15.3501 6.82548L17.0182 5.15747C17.8798 4.29589 17.8798 2.90013 17.0182 2.03855L15.6602 0.677252C14.7986 -0.184328 13.4027 -0.184328 12.5411 0.677252H12.5376ZM10.0906 3.12414L2.05657 11.161C1.69813 11.5194 1.43618 11.9639 1.29143 12.4499L0.0713364 16.5958C-0.0148283 16.8887 0.0644432 17.2023 0.278132 17.416C0.49182 17.6297 0.805459 17.709 1.09497 17.6262L5.24122 16.4062C5.72718 16.2615 6.17179 15.9996 6.53024 15.6412L14.5711 7.60435L10.0906 3.12414Z" fill="white"/>
</svg>
