<svg width="16" height="24" viewBox="0 0 16 24" fill="none" xmlns="http://www.w3.org/2000/svg">
<path d="M7.85399 0.627319C5.5618 0.627319 3.7021 2.51149 3.7021 4.83384V11.8447C3.7021 14.1671 5.5618 16.0512 7.85399 16.0512C10.1462 16.0512 12.0059 14.1671 12.0059 11.8447V4.83384C12.0059 2.51149 10.1462 0.627319 7.85399 0.627319ZM2.31813 10.092C2.31813 9.50921 1.85537 9.04036 1.28016 9.04036C0.70495 9.04036 0.242188 9.50921 0.242188 10.092V11.8447C0.242188 15.7489 3.10526 18.9739 6.81602 19.4866V20.9588H4.74007C4.16486 20.9588 3.7021 21.4277 3.7021 22.0105C3.7021 22.5933 4.16486 23.0621 4.74007 23.0621H7.85399H10.9679C11.5431 23.0621 12.0059 22.5933 12.0059 22.0105C12.0059 21.4277 11.5431 20.9588 10.9679 20.9588H8.89196V19.4866C12.6027 18.9739 15.4658 15.7489 15.4658 11.8447V10.092C15.4658 9.50921 15.003 9.04036 14.4278 9.04036C13.8526 9.04036 13.3898 9.50921 13.3898 10.092V11.8447C13.3898 14.9426 10.9117 17.4534 7.85399 17.4534C4.79629 17.4534 2.31813 14.9426 2.31813 11.8447V10.092Z" fill="white"/>
</svg>
