<svg width="20" height="17" viewBox="0 0 20 17" fill="none" xmlns="http://www.w3.org/2000/svg">
<path d="M10 1.82143C5.51172 1.82143 1.875 5.35424 1.875 9.71429V13.6607C1.875 14.1654 1.45703 14.5714 0.9375 14.5714C0.417969 14.5714 0 14.1654 0 13.6607V9.71429C0 4.34866 4.47656 0 10 0C15.5234 0 20 4.34866 20 9.71429V13.6607C20 14.1654 19.582 14.5714 19.0625 14.5714C18.543 14.5714 18.125 14.1654 18.125 13.6607V9.71429C18.125 5.35424 14.4883 1.82143 10 1.82143ZM3.125 12.1429C3.125 10.8033 4.24609 9.71429 5.625 9.71429H6.25C6.94141 9.71429 7.5 10.2569 7.5 10.9286V13.3571V15.7857C7.5 16.4574 6.94141 17 6.25 17H5.625C4.24609 17 3.125 15.9109 3.125 14.5714V12.1429ZM14.375 9.71429C15.7539 9.71429 16.875 10.8033 16.875 12.1429V14.5714C16.875 15.9109 15.7539 17 14.375 17H13.75C13.0586 17 12.5 16.4574 12.5 15.7857V10.9286C12.5 10.2569 13.0586 9.71429 13.75 9.71429H14.375Z" fill="white"/>
</svg>
