<svg width="28" height="22" viewBox="0 0 28 22" fill="none" xmlns="http://www.w3.org/2000/svg">
<path d="M1.375 9.625H2.75V17.875H1.375C1.19437 17.8752 1.01548 17.8398 0.848555 17.7708C0.681634 17.7018 0.529969 17.6005 0.402246 17.4728C0.274522 17.345 0.173248 17.1934 0.104225 17.0264C0.0352016 16.8595 -0.000215816 16.6806 9.8937e-07 16.5V11C-0.000215816 10.8194 0.0352016 10.6405 0.104225 10.4736C0.173248 10.3066 0.274522 10.155 0.402246 10.0272C0.529969 9.89952 0.681634 9.79825 0.848555 9.72922C1.01548 9.6602 1.19437 9.62478 1.375 9.625ZM23.375 7.5625V19.25C23.3743 19.9791 23.0843 20.6782 22.5687 21.1937C22.0532 21.7093 21.3541 21.9993 20.625 22H6.875C6.14588 21.9993 5.44682 21.7093 4.93125 21.1937C4.41568 20.6782 4.12572 19.9791 4.125 19.25V7.5625C4.12485 7.11104 4.21367 6.66398 4.38637 6.24685C4.55906 5.82973 4.81226 5.45072 5.13149 5.13149C5.45072 4.81226 5.82973 4.55906 6.24685 4.38636C6.66398 4.21367 7.11104 4.12485 7.5625 4.125H12.375V1.375C12.375 1.01033 12.5199 0.660591 12.7777 0.402728C13.0356 0.144866 13.3853 0 13.75 0C14.1147 0 14.4644 0.144866 14.7223 0.402728C14.9801 0.660591 15.125 1.01033 15.125 1.375V4.125H19.9375C20.389 4.12485 20.836 4.21367 21.2531 4.38636C21.6703 4.55906 22.0493 4.81226 22.3685 5.13149C22.6877 5.45072 22.9409 5.82973 23.1136 6.24685C23.2863 6.66398 23.3751 7.11104 23.375 7.5625ZM11.3438 11C11.3438 10.6601 11.2429 10.3278 11.0541 10.0451C10.8652 9.76247 10.5968 9.54217 10.2827 9.41208C9.96868 9.28199 9.62309 9.24796 9.28969 9.31427C8.95628 9.38059 8.65003 9.54429 8.40966 9.78466C8.16929 10.025 8.0056 10.3313 7.93928 10.6647C7.87296 10.9981 7.907 11.3437 8.03708 11.6577C8.16717 11.9718 8.38747 12.2402 8.67011 12.4291C8.95276 12.6179 9.28506 12.7188 9.625 12.7188C9.85072 12.7188 10.0742 12.6743 10.2828 12.588C10.4913 12.5016 10.6808 12.375 10.8404 12.2154C11 12.0558 11.1266 11.8663 11.213 11.6578C11.2993 11.4492 11.3438 11.2257 11.3438 11ZM11 16.5H8.25V17.875H11V16.5ZM15.125 16.5H12.375V17.875H15.125V16.5ZM19.5938 11C19.5938 10.6601 19.4929 10.3278 19.3041 10.0451C19.1152 9.76247 18.8468 9.54217 18.5327 9.41208C18.2187 9.28199 17.8731 9.24796 17.5397 9.31427C17.2063 9.38059 16.9 9.54429 16.6597 9.78466C16.4193 10.025 16.2556 10.3313 16.1893 10.6647C16.123 10.9981 16.157 11.3437 16.2871 11.6577C16.4172 11.9718 16.6375 12.2402 16.9201 12.4291C17.2028 12.6179 17.5351 12.7188 17.875 12.7188C18.1007 12.7188 18.3242 12.6743 18.5328 12.588C18.7413 12.5016 18.9308 12.375 19.0904 12.2154C19.25 12.0558 19.3766 11.8663 19.463 11.6578C19.5493 11.4492 19.5938 11.2257 19.5938 11ZM19.25 16.5H16.5V17.875H19.25V16.5ZM27.5 11V16.5C27.5002 16.6806 27.4648 16.8595 27.3958 17.0264C27.3268 17.1934 27.2255 17.345 27.0978 17.4728C26.97 17.6005 26.8184 17.7018 26.6514 17.7708C26.4845 17.8398 26.3056 17.8752 26.125 17.875H24.75V9.625H26.125C26.3056 9.62478 26.4845 9.6602 26.6514 9.72922C26.8184 9.79825 26.97 9.89952 27.0978 10.0272C27.2255 10.155 27.3268 10.3066 27.3958 10.4736C27.4648 10.6405 27.5002 10.8194 27.5 11Z" fill="black"/>
</svg>
