<svg width="21" height="20" viewBox="0 0 21 20" fill="none" xmlns="http://www.w3.org/2000/svg">
<path d="M6.84184 3.83542C6.84184 2.87916 7.22171 1.96206 7.89789 1.28588C8.57407 0.609701 9.49117 0.229828 10.4474 0.229828C11.4037 0.229828 12.3208 0.609701 12.997 1.28588C13.6731 1.96206 14.053 2.87916 14.053 3.83542C14.053 4.79168 13.6731 5.70878 12.997 6.38496C12.3208 7.06113 11.4037 7.44101 10.4474 7.44101C9.49117 7.44101 8.57407 7.06113 7.89789 6.38496C7.22171 5.70878 6.84184 4.79168 6.84184 3.83542ZM9.84649 9.54427V19.4596L8.02868 18.5507C7.24371 18.1601 6.39489 17.9122 5.51979 17.8259L1.9142 17.4653C1.302 17.4015 0.83252 16.8869 0.83252 16.2672V8.64287C0.83252 7.97809 1.3696 7.44101 2.03438 7.44101H3.1724C5.5611 7.44101 7.88971 8.17715 9.84649 9.54427ZM11.0484 19.4596V9.54427C13.0051 8.17715 15.3338 7.44101 17.7225 7.44101H18.8605C19.5253 7.44101 20.0623 7.97809 20.0623 8.64287V16.2672C20.0623 16.8831 19.5929 17.4015 18.9807 17.4615L15.3751 17.8221C14.5037 17.9085 13.6511 18.1564 12.8662 18.547L11.0484 19.4596Z" fill="white"/>
</svg>
