<svg width="18" height="19" viewBox="0 0 18 19" fill="none" xmlns="http://www.w3.org/2000/svg">
<path d="M4.45032 0.229828C2.45973 0.229828 0.844727 1.77754 0.844727 3.68518V15.203C0.844727 17.1107 2.45973 18.6584 4.45032 18.6584H15.2671H16.4689C17.1337 18.6584 17.6708 18.1437 17.6708 17.5066C17.6708 16.8695 17.1337 16.3548 16.4689 16.3548V14.0513C17.1337 14.0513 17.6708 13.5366 17.6708 12.8995V1.38161C17.6708 0.744532 17.1337 0.229828 16.4689 0.229828H15.2671H4.45032ZM4.45032 14.0513H14.0652V16.3548H4.45032C3.78554 16.3548 3.24845 15.8401 3.24845 15.203C3.24845 14.566 3.78554 14.0513 4.45032 14.0513ZM5.65218 5.41286C5.65218 5.09612 5.9226 4.83697 6.25311 4.83697H13.4643C13.7948 4.83697 14.0652 5.09612 14.0652 5.41286C14.0652 5.7296 13.7948 5.98876 13.4643 5.98876H6.25311C5.9226 5.98876 5.65218 5.7296 5.65218 5.41286ZM6.25311 7.14054H13.4643C13.7948 7.14054 14.0652 7.39969 14.0652 7.71643C14.0652 8.03318 13.7948 8.29233 13.4643 8.29233H6.25311C5.9226 8.29233 5.65218 8.03318 5.65218 7.71643C5.65218 7.39969 5.9226 7.14054 6.25311 7.14054Z" fill="white"/>
</svg>
